<?xml version="1.0" standalone="no"?>
<!DOCTYPE svg PUBLIC "-//W3C//DTD SVG 20010904//EN"
 "http://www.w3.org/TR/2001/REC-SVG-20010904/DTD/svg10.dtd">
<svg version="1.0" xmlns="http://www.w3.org/2000/svg"
 width="287.000000pt" height="283.000000pt" viewBox="0 0 287.000000 283.000000"
 preserveAspectRatio="xMidYMid meet">

<g transform="translate(0.000000,283.000000) scale(0.100000,-0.100000)"
fill="#0a0a0a" stroke="none">
<path d="M1283 2800 c-116 -41 -189 -123 -239 -270 -15 -43 -19 -83 -18 -185
0 -114 4 -141 29 -220 15 -49 33 -115 40 -145 11 -51 10 -58 -11 -100 -20 -39
-22 -51 -13 -83 8 -29 18 -42 41 -51 23 -10 37 -27 55 -71 13 -31 22 -59 20
-62 -11 -11 -60 12 -100 48 -52 45 -102 135 -158 284 -83 222 -144 312 -248
362 -74 37 -190 39 -263 5 -63 -28 -131 -93 -158 -148 -30 -64 -22 -88 12 -37
15 22 46 57 71 77 111 91 217 89 315 -7 72 -69 117 -177 172 -406 36 -148 84
-247 147 -299 l44 -37 -27 -7 c-47 -12 -132 13 -218 65 -194 118 -227 137
-296 161 -115 42 -237 38 -330 -9 -100 -51 -150 -136 -150 -255 0 -90 20 -141
73 -187 71 -63 161 -63 262 -2 29 18 40 28 25 24 -14 -3 -54 -9 -90 -12 -121
-10 -185 42 -177 144 5 71 42 125 109 159 45 23 61 26 132 22 101 -4 174 -37
358 -161 136 -91 211 -125 296 -134 28 -3 52 -11 52 -17 -1 -19 -98 -196 -155
-280 -90 -134 -185 -246 -247 -292 -79 -58 -147 -71 -171 -33 -16 25 8 71 74
145 79 86 99 128 99 204 0 34 -6 73 -14 88 -19 36 -65 78 -99 91 -50 19 -137
13 -192 -13 l-50 -24 71 5 c125 10 194 -34 194 -123 0 -60 -9 -75 -100 -169
-83 -86 -103 -117 -120 -187 -40 -158 141 -263 309 -179 189 96 391 330 533
618 33 68 64 120 69 117 14 -8 10 -142 -6 -219 -36 -171 -127 -284 -320 -396
-175 -101 -244 -184 -253 -301 -11 -141 120 -271 273 -272 107 0 223 75 284
184 l24 43 -34 -26 c-19 -14 -62 -39 -94 -54 -51 -24 -73 -28 -145 -28 -101 0
-145 20 -174 78 -17 36 -17 40 -2 82 23 59 82 109 181 155 162 75 282 171 357
285 37 56 79 175 93 259 5 29 9 36 16 25 5 -8 9 -27 9 -44 0 -50 53 -186 97
-250 75 -111 191 -201 364 -283 142 -68 206 -160 162 -234 -32 -55 -75 -73
-173 -73 -72 0 -94 4 -143 27 -32 15 -70 37 -84 48 -65 51 -19 -33 57 -104 69
-64 128 -90 210 -90 147 1 269 120 270 265 0 115 -78 210 -255 309 -219 123
-316 266 -331 489 -3 47 -2 97 3 110 9 23 15 14 65 -90 139 -286 343 -525 532
-624 112 -58 222 -45 289 35 69 81 36 199 -88 320 -37 36 -75 82 -86 102 -27
53 -25 109 6 147 35 40 83 54 169 49 l71 -5 -50 23 c-35 17 -68 24 -110 24
-72 0 -116 -21 -159 -74 -25 -30 -31 -48 -34 -100 -5 -82 15 -128 102 -225 91
-102 100 -152 27 -159 -89 -9 -220 114 -391 368 -41 61 -140 245 -140 260 0 4
24 10 53 12 82 8 159 43 304 140 210 140 268 163 392 156 58 -3 78 -9 113 -34
82 -58 112 -160 68 -232 -35 -56 -128 -78 -223 -51 -60 16 -53 5 18 -31 85
-43 151 -46 216 -8 63 37 91 92 97 188 7 125 -25 195 -118 258 -57 39 -117 55
-202 54 -114 0 -216 -39 -380 -146 -141 -91 -223 -122 -289 -109 -26 5 -25 5
26 56 67 68 98 136 144 320 21 84 53 187 71 229 73 177 209 257 336 199 50
-23 116 -81 145 -127 31 -51 42 -41 19 18 -24 65 -88 131 -160 166 -46 23 -68
27 -135 27 -67 0 -89 -4 -137 -28 -103 -51 -157 -131 -253 -376 -64 -165 -82
-199 -138 -258 -37 -38 -101 -73 -113 -60 -3 2 7 31 21 64 19 44 33 62 55 70
21 8 32 21 41 51 10 36 10 44 -10 77 -28 48 -27 70 13 207 46 155 59 249 46
339 -29 205 -126 340 -275 385 -70 21 -227 18 -292 -6z m172 -1482 c-12 -114
-20 -123 -33 -35 -16 106 -16 107 14 107 l26 0 -7 -72z"/>
</g>
</svg>
